<svg width="24" height="25" viewBox="0 0 24 25" fill="none" xmlns="http://www.w3.org/2000/svg">
<path d="M19.7007 4.96995C19.5007 4.92995 19.1607 4.98995 18.9207 5.09995L3.56071 12.8C2.68071 13.54 2.96071 14.96 4.05071 15.32C4.05071 15.32 6.78071 17.06 7.76071 16.84C8.41071 16.69 15.4307 9.38995 15.7007 9.23995C16.0207 9.05995 16.1507 9.16995 16.0707 9.43995C15.9507 9.83995 9.25071 17.26 9.32071 17.55C9.51071 18.33 16.7407 20.61 16.7407 20.61C17.5307 20.88 18.4007 20.34 18.5907 19.55L20.9707 6.69995C20.9907 6.37995 20.9407 5.96995 20.8107 5.76995C20.6807 5.56995 19.9707 5.03995 19.7007 4.98995V4.96995Z" fill="#F3F3F3"/>
<path d="M11.0499 21.3099C11.4599 21.1099 12.4299 20.5099 12.2599 20.0199C12.1499 19.7199 9.4499 18.2699 8.9999 18.5199C8.6599 18.6599 8.7199 19.9199 8.7199 20.3799C8.7399 21.8699 9.3999 22.1099 11.0499 21.3099Z" fill="#F3F3F3"/>
</svg>
