<svg width="24" height="25" viewBox="0 0 24 25" fill="none" xmlns="http://www.w3.org/2000/svg">
<path d="M11.9902 2.5C6.47023 2.5 1.99023 6.98 1.99023 12.5C1.99023 18.02 6.47023 22.5 11.9902 22.5C17.5102 22.5 21.9902 18.02 21.9902 12.5C21.9902 6.98 17.5102 2.5 11.9902 2.5ZM11.9902 6.55C13.7902 6.55 15.2502 8.01 15.2502 9.81C15.2502 11.61 13.7902 13.07 11.9902 13.07C10.1902 13.07 8.73023 11.61 8.73023 9.81C8.73023 8.01 10.1902 6.55 11.9902 6.55ZM12.6902 20.5H11.2902C9.34023 20.33 7.59023 19.46 6.29023 18.14C6.82023 15.96 8.23023 13.07 11.9302 13.07C15.6302 13.07 17.0802 16.01 17.6502 18.19C16.3602 19.49 14.6202 20.34 12.6902 20.51V20.5Z" fill="#F3F3F3"/>
</svg>
