<svg width="16" height="19" viewBox="0 0 16 19" fill="none" xmlns="http://www.w3.org/2000/svg">
<path d="M14.2859 2.71004H12.2159L11.1859 1.07004C11.0059 0.740039 10.6659 0.540039 10.2959 0.540039H5.30594C4.89594 0.540039 4.52594 0.780039 4.37594 1.15004L3.60594 2.71004H1.59594C1.03594 2.71004 0.585938 3.16004 0.585938 3.71004C0.585938 4.26004 1.03594 4.71004 1.59594 4.71004H2.19594V17.15C2.19594 17.7 3.05594 18.43 3.61594 18.43H12.1159C12.7259 18.5 13.6959 17.75 13.6959 17.15V4.71004H14.3059C14.8659 4.71004 15.3159 4.26004 15.3159 3.71004C15.3159 3.16004 14.8659 2.71004 14.3059 2.71004H14.2859ZM5.67594 14.99C5.67594 15.27 5.45594 15.49 5.17594 15.49C4.89594 15.49 4.67594 15.27 4.67594 14.99V7.58004C4.67594 7.30004 4.89594 7.08004 5.17594 7.08004C5.45594 7.08004 5.67594 7.30004 5.67594 7.58004V14.99ZM8.67594 14.99C8.67594 15.27 8.45594 15.49 8.17594 15.49C7.89594 15.49 7.67594 15.27 7.67594 14.99V7.58004C7.67594 7.30004 7.89594 7.08004 8.17594 7.08004C8.45594 7.08004 8.67594 7.30004 8.67594 7.58004V14.99ZM5.78594 2.71004L5.96594 2.27004H9.67594L9.91594 2.71004H5.78594ZM11.6359 14.99C11.6359 15.27 11.4159 15.49 11.1359 15.49C10.8559 15.49 10.6359 15.27 10.6359 14.99V7.58004C10.6359 7.30004 10.8559 7.08004 11.1359 7.08004C11.4159 7.08004 11.6359 7.30004 11.6359 7.58004V14.99Z" fill="#393939"/>
</svg>
