<svg width="31" height="31" viewBox="0 0 31 31" fill="none" xmlns="http://www.w3.org/2000/svg">
<path d="M25.4169 6.89833C25.4169 6.89833 25.5502 6.89833 25.5669 6.84842L25.7001 6.1995L26.2332 6.61547C26.2332 6.61547 26.3665 6.61547 26.3832 6.56555L26.5331 5.93327L27.0163 6.31597C27.0163 6.31597 27.1495 6.31597 27.1662 6.26605L27.2995 5.70033L27.8159 6.06639C27.8159 6.06639 27.9492 6.06639 27.9659 6.01647L28.0825 5.40083L28.5823 5.76689C28.5823 5.76689 28.7155 5.76689 28.7322 5.71697L28.8655 5.10133L29.332 5.43411C29.332 5.43411 29.4652 5.43411 29.4819 5.38419C29.4819 5.38419 29.6818 4.9183 29.7484 4.75191C29.9317 4.33594 30.1649 4.11963 29.965 3.37088C28.8988 -0.672383 24.9504 0.891677 21.935 1.29101C21.4686 1.2411 21.1687 0.875039 20.7022 0.758566C19.686 0.508982 18.9696 0.84176 18.2033 1.49068C15.621 3.68702 15.2045 7.04808 15.1045 10.2594C15.0213 10.7419 13.9883 10.5423 13.5719 10.5589C10.2899 10.7752 6.35819 11.8567 3.74262 13.8867C1.71013 15.4507 0.527289 17.2644 0.244073 19.1779C-0.15576 21.8734 0.160774 24.3359 2.82633 26.7819C4.52562 28.3459 4.12579 28.6953 9.82342 29.8434C9.82342 29.8434 6.20826 26.3659 5.8584 24.5356C5.59185 23.1047 6.60809 21.7236 7.99085 21.8567C9.5402 21.9898 10.0067 22.2727 12.0225 24.3193C13.0554 25.3675 9.4569 26.3492 9.42358 26.9649C9.30696 28.9116 11.9392 30.0597 12.489 30.2927C12.8721 30.4591 14.9879 30.8418 14.7714 30.2261C14.4548 29.311 14.4048 28.3459 14.5548 27.7636C14.9046 26.3326 16.8205 23.8867 17.0371 23.9366C17.4536 24.0531 15.2711 26.5656 15.0213 27.6304C14.8713 28.2794 14.6381 30.2428 15.7709 30.5423H22.3349C22.9346 30.0265 21.9184 28.9283 21.4352 28.7785C20.9021 28.5955 19.2695 28.2794 19.2695 28.2794C20.3357 26.8651 21.0521 25.8667 22.1183 24.1363C22.6347 23.271 23.1345 21.3243 22.6514 20.4757C22.5348 20.276 22.085 19.7769 22.135 19.5938C22.1683 19.494 22.4348 19.2943 22.5348 19.1779C22.9346 18.6787 23.3178 18.0797 23.4844 17.4474L24.0841 17.5805C23.4178 18.3792 24.0841 19.4274 25.1004 19.1113C25.2003 19.078 25.8834 18.5289 25.9834 18.4291C26.5831 17.7469 26.3832 16.682 25.6168 16.2161C24.8671 15.7502 22.5514 15.6837 24.7505 14.8684C24.7505 15.8667 26.1333 16.1163 26.4831 15.2012C26.9829 13.8867 26.2999 12.4724 24.7505 12.7885C24.334 12.8717 23.8842 13.2544 23.5011 13.4374C23.4677 13.4374 23.2678 12.9715 23.2678 12.9216C23.1512 12.2394 23.3511 11.2411 23.2678 10.509L27.716 10.9915C28.1491 10.9749 28.499 10.7419 28.7655 10.4091C28.9821 10.1429 29.5819 9.07803 29.282 8.81181L28.449 8.51231L28.3324 7.94659C28.3324 7.94659 28.2491 7.84675 28.1824 7.89667L27.6993 8.24609L27.5827 7.64709C27.5827 7.64709 27.4994 7.54725 27.4327 7.59717L26.8996 7.97986L26.783 7.36422C26.783 7.29767 26.6997 7.26439 26.6331 7.31431L26.1166 7.68036L25.9834 7.03144C25.9834 7.03144 25.9001 6.93161 25.8334 6.98153C25.8334 6.98153 25.3836 7.34758 25.3003 7.36422C25.267 7.36422 25.167 7.34758 25.167 7.34758C25.1004 7.31431 23.9675 6.89833 23.9675 6.89833C24.2674 6.78186 24.6173 6.58219 24.8172 6.59883C24.9838 6.59883 25.4336 6.98153 25.4336 6.98153L25.4169 6.89833ZM22.0517 4.68535C21.5685 4.68535 21.1687 4.28602 21.1687 3.80349C21.1687 3.32096 21.5685 2.92163 22.0517 2.92163C22.5348 2.92163 22.9346 3.32096 22.9346 3.80349C22.9346 4.28602 22.5348 4.68535 22.0517 4.68535Z" fill="#919191"/>
</svg>
