<svg width="25" height="25" viewBox="0 0 25 25" fill="none" xmlns="http://www.w3.org/2000/svg">
<path d="M4.47317 12C3.89925 12 3.42969 12.45 3.42969 13V17.88C3.42969 17.88 3.42969 18.88 4.47317 18.88H21.1688C21.1688 18.88 22.2123 18.88 22.2123 17.88V13C22.2123 12.45 21.7427 12 21.1688 12C20.5949 12 20.1253 12.45 20.1253 13V16.88H5.51664V13C5.51664 12.45 5.04708 12 4.47317 12Z" fill="#393939"/>
<path d="M17.7811 9.57992C17.3533 9.20992 16.6959 9.24992 16.3202 9.64992L13.8576 11.3099V6.41992C13.8576 5.86992 13.388 5.41992 12.8141 5.41992C12.2402 5.41992 11.7707 5.86992 11.7707 6.41992V11.3099L9.30804 9.64992C8.92196 9.23992 8.26456 9.20992 7.84717 9.57992C7.42978 9.94992 7.38804 10.5799 7.77413 10.9799L11.9272 14.4399C11.9272 14.4399 12.0315 14.5099 12.0837 14.5499C12.1046 14.5699 12.115 14.5999 12.1359 14.6199C12.5637 14.9899 13.2211 14.9499 13.5967 14.5499L17.8541 10.9799C18.2402 10.5699 18.1985 9.93992 17.7811 9.57992Z" fill="#393939"/>
</svg>
