<svg width="18" height="16" viewBox="0 0 18 16" fill="none" xmlns="http://www.w3.org/2000/svg">
<path d="M14.2738 4.55027L15.7237 3.05027C16.0037 2.60027 15.8337 2.02027 15.3538 1.76027C14.8738 1.50027 14.2637 1.65027 13.9837 2.10027L12.4037 3.80027C11.6437 3.58027 10.8237 3.43027 9.98375 3.37027V1.47027C9.98375 0.950273 9.54375 0.530273 8.98375 0.530273C8.42375 0.530273 7.98375 0.950273 7.98375 1.47027V3.37027C7.04375 3.44027 6.16375 3.62027 5.34375 3.87027L3.85375 2.05027C3.57375 1.60027 2.96375 1.45027 2.48375 1.71027C2.00375 1.97027 1.84375 2.54027 2.11375 3.00027L3.50375 4.65027C1.43375 5.77027 0.09375 7.51027 0.09375 9.47027C0.09375 12.8503 4.08375 15.6003 8.98375 15.6003C13.8837 15.6003 17.8737 12.8503 17.8737 9.47027C17.8737 7.46027 16.4538 5.67027 14.2638 4.55027H14.2738ZM8.99375 13.7103C5.26375 13.7103 2.10375 11.7703 2.10375 9.46027C2.10375 7.15027 5.25375 5.21027 8.99375 5.21027C12.7337 5.21027 15.8837 7.15027 15.8837 9.46027C15.8837 11.7703 12.7337 13.7103 8.99375 13.7103Z" fill="#393939"/>
<path d="M8.9975 6.15039C7.1675 6.15039 5.6875 7.63039 5.6875 9.46039C5.6875 11.2904 7.1675 12.7704 8.9975 12.7704C10.8275 12.7704 12.3075 11.2904 12.3075 9.46039C12.3075 7.63039 10.8275 6.15039 8.9975 6.15039Z" fill="#393939"/>
</svg>
