<svg width="24" height="25" viewBox="0 0 24 25" fill="none" xmlns="http://www.w3.org/2000/svg">
<path d="M20.5832 8.4503C20.2432 8.0703 19.6532 8.0403 19.2732 8.3903C14.2432 12.9503 10.1532 13.0303 4.67315 8.6703C4.27315 8.3503 3.69315 8.4203 3.37315 8.8203C3.05315 9.2203 3.12315 9.8003 3.52315 10.1203C4.51315 10.9103 5.47315 11.5503 6.41315 12.0803L4.97315 15.0203C4.75315 15.4803 4.94315 16.0403 5.40315 16.2603C5.53315 16.3203 5.67315 16.3503 5.81315 16.3503C6.15315 16.3503 6.48315 16.1603 6.64315 15.8303L8.08315 12.8903C9.10315 13.3103 10.0932 13.5703 11.0732 13.6703V16.6403C11.0732 17.1503 11.4832 17.5703 12.0032 17.5703C12.5232 17.5703 12.9332 17.1503 12.9332 16.6403V13.6703C13.8632 13.5803 14.7931 13.3303 15.7232 12.9403L17.2732 16.1203C17.4332 16.4503 17.7632 16.6403 18.1032 16.6403C18.2432 16.6403 18.3732 16.6103 18.5032 16.5503C18.9632 16.3303 19.1532 15.7703 18.9332 15.3103L17.3832 12.1103C18.4131 11.5003 19.4632 10.7103 20.5232 9.7503C20.9032 9.4103 20.9332 8.8203 20.5932 8.4403L20.5832 8.4503Z" fill="#393939"/>
</svg>
