<svg width="18" height="17" viewBox="0 0 18 17" fill="none" xmlns="http://www.w3.org/2000/svg">
<path d="M13.7102 9.57031C11.7202 11.8003 9.49018 13.8003 7.08018 15.5503C7.03018 15.5503 6.70018 14.8003 6.65018 14.6903C5.62018 12.8003 4.00018 11.2903 2.01018 10.4503C1.97018 10.4003 2.45018 9.77031 2.52018 9.69031C4.39018 7.15031 6.62018 4.85031 9.02018 2.82031C10.5602 3.34031 11.9502 4.23031 12.9802 5.48031C13.7202 6.38031 14.2302 7.44031 14.6202 8.53031C14.3402 8.89031 14.0202 9.22031 13.7102 9.57031Z" fill="#393939"/>
<path d="M15.7397 7.19011C15.6797 7.23011 15.5197 6.75011 15.4997 6.70011C14.4197 4.49011 12.7097 2.69011 10.3997 1.77011C10.3597 1.72011 11.3097 1.04011 11.3897 0.990113C12.7397 0.0901132 13.8397 0.460114 15.0397 1.38011C15.9997 2.11011 17.1297 3.53011 17.0297 4.81011C16.9597 5.78011 16.2297 6.43011 15.7397 7.20011V7.19011Z" fill="#393939"/>
<path d="M5.69661 16.2401C5.37661 16.3301 5.03661 16.3101 4.70661 16.3501C4.07661 16.4201 3.39661 16.5301 2.76661 16.5601C1.61661 16.6201 0.896607 15.9001 0.956607 14.7501C0.986607 14.1401 1.10661 13.4601 1.16661 12.8501C1.18661 12.6801 1.20661 11.8901 1.30661 11.8101C3.06661 12.5101 4.49661 13.8601 5.37661 15.5301C5.42661 15.6201 5.71661 16.2101 5.68661 16.2401H5.69661Z" fill="#393939"/>
</svg>
