<svg width="24" height="24" viewBox="0 0 24 24" fill="none" xmlns="http://www.w3.org/2000/svg">
<path d="M8.95 11.24C8.87 11.24 8.8 11.25 8.76 11.15C8.61 10.72 8.71 9.3 8.71 9.3C8.71 8.76 8.5 8.35 7.97 8.35C7.44 8.35 7 8.79 7 9.32V12.29C7 12.49 7.12 13.2 7.19 13.43C7.32 13.89 7.56 14.46 8.08 15.12C8.25 15.34 8.59 15.73 8.8 15.89C8.92 15.98 9.09 16.01 9.09 16.14V20.48C9.09 20.76 9.32 20.98 9.59 20.98H14.67C14.95 20.98 15.17 20.76 15.17 20.48C15.17 19.64 15.17 17.94 15.2 17.13C15.2 16.91 15.29 15.93 15.29 15.93C15.66 15.41 16.29 14.51 16.62 14C16.89 13.57 17.35 11.55 17.35 11.01V8.04C17.35 7.5 16.91 7.07 16.38 7.07C15.85 7.07 15.41 7.51 15.41 8.04V4.86C15.41 4.38 15.02 3.99 14.54 3.99H14.12C13.82 3.99 13.56 4.16 13.4 4.39V3.85C13.4 3.37 13.01 2.98 12.53 2.98H12.11C11.63 2.98 11.24 3.37 11.24 3.85V4.67C11.15 4.28 10.82 3.99 10.41 3.99H9.99C9.51 3.99 9.12 4.38 9.12 4.86V9.54C9.12 9.64 9.1 10.27 9.14 10.72C9.73 10.74 12.19 10.76 12.69 13.46C12.71 13.6 12.63 13.73 12.49 13.75C12.47 13.75 12.46 13.75 12.44 13.75C12.32 13.75 12.22 13.67 12.19 13.54C11.71 10.95 9.17 11.2 9.06 11.22H8.99L8.95 11.24Z" fill="#393939"/>
</svg>
