<svg width="25" height="24" viewBox="0 0 25 24" fill="none" xmlns="http://www.w3.org/2000/svg">
<path d="M20.46 7.55999V5.71999C20.46 5.23999 20.12 4.82999 19.66 4.73999C19.49 4.70999 15.71 3.98999 12.48 6.03999C11.32 5.38999 8.62 4.17999 5.38 4.69999C4.9 4.77999 4.54 5.19999 4.54 5.68999V7.83999C4.26 7.85999 3.91 7.99999 3.52 8.42999V17.81C3.52 17.95 3.64 18.07 3.79 18.06L4.97 17.99C4.97 17.99 5.01 18.04 5.11 18.08C7.16 18.48 11.42 19.35 11.99 19.48C12.06 19.5 12.14 19.5 12.21 19.5H12.85C12.93 19.5 13 19.5 13.08 19.47C14.09 19.23 19.15 18.05 19.84 17.79C19.84 17.79 19.8567 17.78 19.89 17.76L21.22 17.84C21.36 17.84 21.49 17.73 21.49 17.59V8.20999C21.31 7.55999 20.88 7.47999 20.49 7.55999H20.46ZM11.5 17.34C10.16 17.07 7.77 16.6 6.52 16.36V6.57999C8.79 6.45999 10.69 7.33999 11.5 7.78999V17.34ZM18.46 16.1C17.4 16.38 15.3 16.89 13.5 17.31V7.74999C15.27 6.60999 17.34 6.54999 18.46 6.60999V16.1Z" fill="#393939"/>
</svg>
