<svg width="25" height="24" viewBox="0 0 25 24" fill="none" xmlns="http://www.w3.org/2000/svg">
<path d="M21.46 18.86C21.46 19.88 20.63 20.71 19.61 20.71H5.48999C4.46999 20.6 3.65999 19.84 3.53999 18.81V7.11C3.58999 6.29 4.56999 5.25 5.39999 5.25H7.16999V4.27C7.16999 4.04 7.39999 3.78 7.60999 3.7C7.85999 3.6 8.81999 3.59 9.09999 3.65C9.18999 3.67 9.37999 3.76 9.43999 3.83C9.46999 3.86 9.61999 4.11 9.61999 4.13V5.18L9.68999 5.25H15.35V4.14C15.35 3.98 15.71 3.69 15.87 3.66C16.1 3.61 17.13 3.61 17.34 3.68C17.53 3.75 17.8 4.02 17.8 4.23V5.26H19.57C20.45 5.26 21.54 6.43 21.47 7.33V18.87L21.46 18.86ZM20.01 14.91V10.02H4.99999L4.92999 10.09V18.78C4.92999 19.02 5.37999 19.33 5.60999 19.33H19.41C19.74 19.33 20.01 19.06 20.01 18.73V14.92V14.91Z" fill="#393939"/>
<path d="M13.79 13.62C13.79 13.62 13.61 13.74 13.56 13.76C13.28 13.85 11.98 13.85 11.65 13.81C11.27 13.77 11.05 13.56 11.01 13.18C10.99 12.91 10.98 12.3 11.01 12.05C11.06 11.72 11.33 11.54 11.64 11.5C12.02 11.46 12.97 11.46 13.34 11.5C13.68 11.54 13.94 11.79 13.97 12.13C14 12.47 14.03 13.38 13.78 13.62H13.79Z" fill="#393939"/>
<path d="M9.37999 13.62C9.37999 13.62 9.20999 13.74 9.14999 13.76C8.86999 13.85 7.56999 13.85 7.23999 13.81C6.85999 13.77 6.63999 13.55 6.59999 13.18C6.57999 12.93 6.56999 12.28 6.59999 12.05C6.64999 11.71 6.94999 11.53 7.26999 11.5C7.66999 11.46 8.53999 11.46 8.92999 11.5C9.34999 11.55 9.52999 11.83 9.55999 12.22C9.58999 12.55 9.60999 13.39 9.36999 13.62H9.37999Z" fill="#393939"/>
<path d="M15.98 11.51C16.32 11.45 17.41 11.46 17.76 11.5C17.97 11.52 18.23 11.67 18.32 11.86C18.43 12.09 18.43 12.9 18.39 13.18C18.34 13.58 18.12 13.78 17.72 13.82C17.32 13.86 16.45 13.86 16.06 13.82C15.75 13.78 15.48 13.59 15.43 13.27C15.39 13.01 15.4 12.12 15.49 11.9C15.57 11.69 15.76 11.55 15.98 11.52V11.51Z" fill="#393939"/>
<path d="M11.48 15.4C11.81 15.34 13.09 15.35 13.44 15.39C13.66 15.42 13.85 15.58 13.93 15.78C14.01 16 14.02 16.82 13.98 17.07C13.93 17.44 13.71 17.63 13.35 17.67C12.92 17.71 12.02 17.71 11.6 17.67C11.29 17.64 11.06 17.43 11.01 17.12C10.98 16.88 10.97 16.13 11.01 15.9C11.04 15.69 11.27 15.44 11.48 15.41V15.4Z" fill="#393939"/>
<path d="M15.9 15.4C16.23 15.34 17.51 15.35 17.86 15.39C18.08 15.42 18.27 15.58 18.35 15.78C18.43 16 18.44 16.82 18.4 17.07C18.35 17.44 18.13 17.63 17.77 17.67C17.34 17.71 16.44 17.71 16.02 17.67C15.71 17.64 15.48 17.43 15.43 17.12C15.4 16.88 15.39 16.13 15.43 15.9C15.46 15.69 15.69 15.44 15.9 15.41V15.4Z" fill="#393939"/>
<path d="M7.07 15.4C7.4 15.34 8.68 15.35 9.03 15.39C9.25 15.42 9.41 15.55 9.5 15.75C9.62 16.05 9.62 17 9.5 17.3C9.39 17.56 9.22 17.64 8.95 17.66C8.52 17.7 7.62 17.7 7.2 17.66C6.89 17.63 6.66 17.42 6.61 17.11C6.58 16.87 6.57 16.12 6.61 15.89C6.64 15.68 6.87 15.43 7.08 15.4H7.07Z" fill="#393939"/>
</svg>
