<svg width="25" height="25" viewBox="0 0 25 25" fill="none" xmlns="http://www.w3.org/2000/svg">
<path d="M20.22 4.00999C20.02 3.96999 19.68 4.02999 19.44 4.13999L4.07999 11.84C3.19999 12.58 3.47999 14 4.56999 14.36C4.56999 14.36 7.29999 16.1 8.27999 15.88C8.92999 15.73 15.95 8.42999 16.22 8.27999C16.54 8.09999 16.67 8.20999 16.59 8.47999C16.47 8.87999 9.76999 16.3 9.83999 16.59C10.03 17.37 17.26 19.65 17.26 19.65C18.05 19.92 18.92 19.38 19.11 18.59L21.49 5.73999C21.51 5.41999 21.46 5.00999 21.33 4.80999C21.2 4.60999 20.49 4.07999 20.22 4.02999V4.00999Z" fill="#393939"/>
<path d="M11.57 20.35C11.98 20.15 12.95 19.55 12.78 19.06C12.67 18.76 9.97 17.31 9.52 17.56C9.18 17.7 9.24 18.96 9.24 19.42C9.26 20.91 9.92 21.15 11.57 20.35Z" fill="#393939"/>
</svg>
