<svg width="24" height="25" viewBox="0 0 24 25" fill="none" xmlns="http://www.w3.org/2000/svg">
<path d="M12.99 3H4C3.44772 3 3 3.44772 3 4V9.14C3 9.69229 3.44772 10.14 4 10.14H12.99C13.5423 10.14 13.99 9.69229 13.99 9.14V4C13.99 3.44772 13.5423 3 12.99 3Z" fill="#393939"/>
<path d="M12.99 11.12H4C3.44772 11.12 3 11.5677 3 12.12V20C3 20.5523 3.44772 21 4 21H12.99C13.5423 21 13.99 20.5523 13.99 20V12.12C13.99 11.5677 13.5423 11.12 12.99 11.12Z" fill="#393939"/>
<path d="M20 14.15H15.98C15.4277 14.15 14.98 14.5977 14.98 15.15V20C14.98 20.5523 15.4277 21 15.98 21H20C20.5523 21 21 20.5523 21 20V15.15C21 14.5977 20.5523 14.15 20 14.15Z" fill="#393939"/>
<path d="M20 3H15.98C15.4277 3 14.98 3.44772 14.98 4V12.14C14.98 12.6923 15.4277 13.14 15.98 13.14H20C20.5523 13.14 21 12.6923 21 12.14V4C21 3.44772 20.5523 3 20 3Z" fill="#393939"/>
</svg>
