<svg width="24" height="24" viewBox="0 0 24 24" fill="none" xmlns="http://www.w3.org/2000/svg">
<path d="M15.97 3.58999C15.97 3.58999 15.92 3.49999 15.91 3.45999C14.32 4.11999 12.74 5.00999 11.14 5.57999C10.12 5.93999 9.48999 5.91999 8.44999 6.00999C6.91999 6.14999 5.54999 7.29999 5.42999 8.88999C5.29999 10.74 5.24999 12.75 7.08999 13.73C7.83999 14.13 8.17999 14.04 8.95999 14.11C11.51 14.35 13.71 15.76 16.04 16.74C16.49 15.01 16.43 4.51999 15.96 3.58999H15.97Z" fill="#393939"/>
<path d="M18.61 4.33999C18.5 3.56999 17.77 2.99999 17 3.06999C16.95 3.06999 16.89 3.09999 16.84 3.10999C17.62 4.66999 17.36 15.74 17.01 17.03C17.01 17.03 17 17.04 16.99 17.05C17.79 17.13 18.52 16.56 18.61 15.73V4.33999Z" fill="#393939"/>
<path d="M7.98999 15.33C8.61999 15.44 9.22999 15.4 9.85999 15.52C10.83 15.72 11.7 16.22 12.61 16.59C12.68 16.62 12.67 16.67 12.68 16.74C12.74 17.3 12.72 18.83 12.55 19.34C11.89 21.32 9.05999 21.5 8.20999 19.61C8.15999 19.51 7.99999 19.08 7.99999 19V15.34L7.98999 15.33Z" fill="#393939"/>
</svg>
