<svg width="24" height="24" viewBox="0 0 24 24" fill="none" xmlns="http://www.w3.org/2000/svg">
<path d="M4.35 4.76C4.37 4.09 4.3 3.08 5.01 3.08H17.42C18.47 3.08 19.31 3.73 19.43 4.73V19.25C19.33 20.25 18.46 20.91 17.42 20.9H5.05C4.2 20.87 4.36 19.89 4.35 19.22V4.76ZM5.38 19.91H7.01V4.09H5.38V19.91ZM10.63 7.49C10.11 7.51 9.69 7.89 9.63 8.38C9.58 8.8 9.58 10.16 9.75 10.52C9.89 10.81 10.25 11.01 10.57 11.04C12.27 11.18 14.19 10.93 15.91 11.04C16.25 11 16.59 10.76 16.72 10.46C16.87 10.12 16.86 8.87 16.81 8.47C16.74 7.83 16.35 7.53 15.69 7.48C14.06 7.36 12.27 7.56 10.62 7.49H10.63Z" fill="#393939"/>
</svg>
