<svg width="25" height="25" viewBox="0 0 25 25" fill="none" xmlns="http://www.w3.org/2000/svg">
<path d="M17.23 13.11C15.24 15.34 13.01 17.34 10.6 19.09C10.55 19.09 10.22 18.34 10.17 18.23C9.13998 16.34 7.51998 14.83 5.52998 13.99C5.48998 13.94 5.96998 13.31 6.03998 13.23C7.90998 10.69 10.14 8.39002 12.54 6.36002C14.08 6.88002 15.47 7.77002 16.5 9.02002C17.24 9.92002 17.75 10.98 18.14 12.07C17.86 12.43 17.54 12.76 17.23 13.11Z" fill="#393939"/>
<path d="M19.26 10.73C19.2 10.77 19.04 10.29 19.02 10.24C17.94 8.03003 16.23 6.23003 13.92 5.31003C13.88 5.26003 14.83 4.58003 14.91 4.53003C16.26 3.63003 17.36 4.00003 18.56 4.92003C19.52 5.65003 20.65 7.07003 20.55 8.35003C20.48 9.32003 19.75 9.97003 19.26 10.74V10.73Z" fill="#393939"/>
<path d="M9.21998 19.78C8.89998 19.87 8.55998 19.85 8.22998 19.89C7.59998 19.96 6.91998 20.07 6.28998 20.1C5.13998 20.16 4.41998 19.44 4.47998 18.29C4.50998 17.68 4.62998 17 4.68998 16.39C4.70998 16.22 4.72998 15.43 4.82998 15.35C6.58998 16.05 8.01998 17.4 8.89998 19.07C8.94998 19.16 9.23998 19.75 9.20998 19.78H9.21998Z" fill="#393939"/>
</svg>
