<svg width="25" height="25" viewBox="0 0 25 25" fill="none" xmlns="http://www.w3.org/2000/svg">
<path d="M5.49 3.65002H19.33C20.47 3.77002 21.28 4.63002 21.37 5.77002V19.47C21.28 20.58 20.39 21.47 19.28 21.56H5.62C4.51 21.47 3.62 20.58 3.53 19.47V5.68002C3.64 4.62002 4.43 3.80002 5.49 3.65002ZM8.98 8.87002H5V11.59H8.98V8.87002ZM14.42 8.87002H10.49V11.59H14.42V8.87002ZM15.93 8.87002V11.59H19.86V8.87002H15.93ZM8.98 13.11H5.05V15.88H8.98V13.11ZM14.42 13.11H10.49V15.88H14.42V13.11ZM15.93 13.11V15.88H19.86V13.11H15.93ZM8.98 17.39H5.05V19.58C5.05 19.7 5.41 20.06 5.53 20.06H8.98V17.39ZM14.42 17.39H10.49V20.06H14.42V17.39ZM19.86 17.39H15.93V20.06H19.38C19.5 20.06 19.86 19.7 19.86 19.58V17.39Z" fill="#393939"/>
</svg>
