<svg width="28" height="40" viewBox="0 0 28 40" fill="none" xmlns="http://www.w3.org/2000/svg">
<path d="M15.1677 0.41055L25.7339 6.50455C26.6832 7.05195 27.2677 8.06358 27.2677 9.15838V13.4834C27.2677 14.5782 26.6828 15.5898 25.7339 16.1372L21.9846 18.2992C21.0353 18.8466 20.4508 19.8582 20.4508 20.953V25.278C20.4508 26.3728 19.8662 27.3845 18.917 27.9319L15.1677 30.0942C14.2184 30.6416 13.049 30.6416 12.1001 30.0942L1.53381 24.0009C0.584552 23.4535 0 22.4419 0 21.3471V9.15872C0 8.06392 0.584552 7.05229 1.53381 6.50489L12.0997 0.41055C13.049 -0.13685 14.2184 -0.13685 15.1673 0.41055H15.1677Z" fill="#3B82D9"/>
<path d="M13.0643 1.83555L4.45795 6.7993C4.0036 7.06141 4.0036 7.71686 4.45795 7.97897L13.0643 12.9427C13.4335 13.1558 13.8882 13.1558 14.2573 12.9427L22.8633 7.97897C23.3177 7.71686 23.3177 7.06141 22.8633 6.7993L14.2573 1.83555C13.8882 1.62252 13.4335 1.62252 13.0643 1.83555Z" fill="#A9D7FF"/>
<rect width="27.2677" height="30.5047" fill="black" style="mix-blend-mode:saturation"/>
<path d="M0.0285645 37.5806C0.0285645 36.1848 1.04292 35.1613 2.4813 35.1613C3.71687 35.1613 4.62045 35.9149 4.842 37.0036H3.73561C3.54201 36.5104 3.08085 36.194 2.48164 36.194C1.67928 36.194 1.13529 36.7711 1.13529 37.5806C1.13529 38.3901 1.67928 38.9672 2.48164 38.9672C3.08085 38.9672 3.54201 38.6509 3.73561 38.1577H4.842C4.62079 39.2463 3.71687 39.9999 2.4813 39.9999C1.04292 39.9999 0.0285645 38.9764 0.0285645 37.5806Z" fill="#393939"/>
<path d="M6.48254 37.6734V35.2821H7.57973V37.6734C7.57973 38.5481 8.04089 38.967 8.73247 38.967C9.42405 38.967 9.88522 38.5484 9.88522 37.6734V35.2821H10.9824V37.6734C10.9824 39.2086 10.0788 39.9997 8.73247 39.9997C7.38613 39.9997 6.48254 39.2182 6.48254 37.6734Z" fill="#393939"/>
<path d="M12.8087 37.5436V33.2728H13.9059V35.9525C14.2287 35.4409 14.7727 35.1618 15.4274 35.1618C16.5338 35.1618 17.6958 35.9621 17.6958 37.5344C17.6958 38.9953 16.6814 40.0001 15.2338 40.0001C13.7863 40.0001 12.8087 39.0324 12.8087 37.5436ZM16.5894 37.5807C16.5894 36.7712 16.0454 36.1942 15.243 36.1942C14.4407 36.1942 13.9059 36.7712 13.9059 37.5807C13.9059 38.3903 14.4407 38.9673 15.243 38.9673C16.0454 38.9673 16.5894 38.3903 16.5894 37.5807Z" fill="#393939"/>
<path d="M19.3185 33.9518C19.3185 33.5237 19.6229 33.2074 20.0469 33.2074C20.4709 33.2074 20.7753 33.5237 20.7753 33.9518C20.7753 34.3799 20.4709 34.687 20.0469 34.687C19.6229 34.687 19.3185 34.3799 19.3185 33.9518ZM19.4937 35.2824H20.5909V39.8791H19.4937V35.2824Z" fill="#393939"/>
<path d="M22.3888 37.5808C22.3888 36.185 23.4032 35.1615 24.8415 35.1615C26.2799 35.1615 27.2759 36.185 27.2759 37.5808V37.9717H23.5412C23.6888 38.6418 24.196 38.9953 24.8415 38.9953C25.3303 38.9953 25.6899 38.8559 25.9203 38.558H27.0915C26.7503 39.4326 25.9203 40.0001 24.8415 40.0001C23.4032 40.0001 22.3888 38.9765 22.3888 37.5808ZM26.1142 37.0876C25.9391 36.4734 25.4411 36.1663 24.8419 36.1663C24.2427 36.1663 23.7447 36.4826 23.5695 37.0876H26.1146H26.1142Z" fill="#393939"/>
</svg>
