<svg width="73" height="24" viewBox="0 0 73 24" fill="none" xmlns="http://www.w3.org/2000/svg">
<path d="M11.9343 0.323005L20.2475 5.11753C20.9943 5.54821 21.4542 6.34412 21.4542 7.20547V10.6082C21.4542 11.4696 20.994 12.2655 20.2475 12.6962L17.2976 14.3971C16.5508 14.8278 16.0909 15.6237 16.0909 16.4851V19.8878C16.0909 20.7492 15.631 21.5451 14.8842 21.9758L11.9343 23.677C11.1875 24.1077 10.2674 24.1077 9.52085 23.677L1.20772 18.883C0.46088 18.4523 0.000976562 17.6564 0.000976562 16.7951V7.20574C0.000976562 6.34439 0.46088 5.54848 1.20772 5.1178L9.52058 0.323005C10.2674 -0.107668 11.1875 -0.107668 11.9341 0.323005H11.9343Z" fill="#3B82D9"/>
<path d="M10.2805 1.44443L3.50931 5.34972C3.15184 5.55594 3.15184 6.07162 3.50931 6.27784L10.2805 10.1831C10.5709 10.3507 10.9286 10.3507 11.2191 10.1831L17.99 6.27784C18.3474 6.07162 18.3474 5.55594 17.99 5.34972L11.2191 1.44443C10.9286 1.27682 10.5709 1.27682 10.2805 1.44443Z" fill="#A9D7FF"/>
<rect x="0.000488281" width="21.4532" height="24" fill="black" style="mix-blend-mode:saturation"/>
<path d="M24.4536 13.7316C24.4536 11.2577 26.2514 9.4436 28.8008 9.4436C30.991 9.4436 32.5924 10.7796 32.9848 12.7091H31.0237C30.6804 11.8351 29.8633 11.2744 28.8008 11.2744C27.379 11.2744 26.4147 12.2969 26.4147 13.7318C26.4147 15.1668 27.379 16.1893 28.8008 16.1893C29.863 16.1893 30.6804 15.6286 31.0237 14.7544H32.9848C32.5924 16.6841 30.991 18.0198 28.8008 18.0198C26.2514 18.0198 24.4536 16.2057 24.4536 13.7318V13.7316Z" fill="#393939"/>
<path d="M35.8931 13.8968V9.6582H37.8379V13.8968C37.8379 15.4471 38.6549 16.1894 39.8807 16.1894C41.1065 16.1894 41.9236 15.4474 41.9236 13.8968V9.6582H43.8684V13.8968C43.8684 16.6182 42.2666 18.0199 39.8805 18.0199C37.4943 18.0199 35.8926 16.6345 35.8926 13.8968H35.8931Z" fill="#393939"/>
<path d="M47.1048 13.6657V6.0957H49.0495V10.8454C49.6215 9.93825 50.5858 9.44348 51.7462 9.44348C53.7073 9.44348 55.7665 10.8618 55.7665 13.6491C55.7665 16.2385 53.9687 18.0197 51.4029 18.0197C48.8371 18.0197 47.1045 16.3045 47.1045 13.6657H47.1048ZM53.8054 13.7317C53.8054 12.2968 52.8411 11.2742 51.4193 11.2742C49.9975 11.2742 49.0495 12.2968 49.0495 13.7317C49.0495 15.1667 49.9975 16.1892 51.4193 16.1892C52.8411 16.1892 53.8054 15.1667 53.8054 13.7317Z" fill="#393939"/>
<path d="M58.6431 7.30009C58.6431 6.54145 59.1823 5.98071 59.9343 5.98071C60.6862 5.98071 61.2255 6.54145 61.2255 7.30009C61.2255 8.05873 60.6862 8.6031 59.9343 8.6031C59.1823 8.6031 58.6431 8.05873 58.6431 7.30009ZM58.9536 9.65833H60.8983V17.8055H58.9536V9.65833Z" fill="#393939"/>
<path d="M64.085 13.7316C64.085 11.2577 65.8827 9.4436 68.4322 9.4436C70.9816 9.4436 72.747 11.2577 72.747 13.7316V14.4242H66.1278C66.3893 15.6117 67.2882 16.2384 68.4322 16.2384C69.2984 16.2384 69.9358 15.9911 70.3445 15.4631H72.4201C71.8154 17.0134 70.3445 18.0195 68.4322 18.0195C65.8827 18.0195 64.085 16.2054 64.085 13.7316ZM70.6877 12.8576C70.3772 11.7691 69.4947 11.225 68.4325 11.225C67.3703 11.225 66.4877 11.7858 66.1772 12.8576H70.688H70.6877Z" fill="#393939"/>
</svg>
